<?xml version="1.0" standalone="no"?>
<!DOCTYPE svg PUBLIC "-//W3C//DTD SVG 20010904//EN"
 "http://www.w3.org/TR/2001/REC-SVG-20010904/DTD/svg10.dtd">
<svg version="1.0" xmlns="http://www.w3.org/2000/svg"
 width="150.000000pt" height="115.000000pt" viewBox="0 0 150.000000 115.000000"
 preserveAspectRatio="xMidYMid meet">

<g transform="translate(0.000000,115.000000) scale(0.100000,-0.100000)"
fill="#000000" stroke="none">
<path d="M840 992 c-36 -9 -86 -30 -112 -45 -94 -55 -201 -189 -184 -232 5
-14 12 -7 33 36 64 129 201 219 345 227 225 13 408 -130 449 -351 51 -278
-203 -537 -482 -489 -90 16 -159 51 -229 118 -80 76 -129 184 -130 286 0 35
-14 57 -27 44 -4 -3 -1 -41 5 -84 25 -159 119 -289 259 -355 57 -26 83 -32
160 -35 164 -7 290 50 385 176 68 89 92 174 86 298 -5 83 -10 104 -42 168 -63
127 -184 220 -320 245 -79 15 -118 13 -196 -7z"/>
<path d="M845 926 c-61 -19 -103 -44 -152 -89 -64 -59 -123 -167 -91 -167 30
0 86 21 85 33 -2 71 15 97 74 108 24 4 71 17 104 29 48 18 71 21 115 15 30 -3
65 -6 77 -6 12 0 26 -5 30 -12 4 -6 17 -19 28 -27 16 -11 17 -11 8 0 -18 19
-16 55 2 70 23 19 -1 32 -47 24 -30 -4 -38 -2 -48 15 -9 18 -20 21 -78 20 -37
0 -85 -6 -107 -13z"/>
<path d="M1196 832 c-4 -12 -18 -25 -32 -28 l-24 -6 39 -45 c49 -55 71 -118
71 -203 0 -55 -6 -78 -30 -126 -16 -32 -30 -67 -30 -77 0 -9 -10 -21 -22 -26
-13 -5 -52 -21 -87 -36 -54 -23 -74 -27 -140 -23 -147 6 -242 86 -281 232 -15
60 -16 61 -54 64 l-39 3 7 -53 c15 -114 100 -239 195 -288 153 -78 319 -57
441 57 157 145 169 375 27 538 -33 38 -35 38 -41 17z m-386 -587 c11 -3 20
-10 20 -15 0 -4 9 -6 20 -3 14 4 20 0 20 -11 0 -13 -6 -15 -27 -10 -61 15
-118 55 -101 72 9 9 16 7 30 -7 9 -11 26 -22 38 -26z m368 25 c3 -9 -1 -11
-11 -7 -10 4 -18 -1 -22 -12 -8 -28 -65 -38 -65 -12 0 4 16 13 35 20 19 7 35
17 35 22 0 15 23 6 28 -11z m-108 -45 c0 -8 -2 -15 -4 -15 -2 0 -6 7 -10 15
-3 8 -1 15 4 15 6 0 10 -7 10 -15z m-137 -4 c13 -1 -16 -28 -30 -28 -7 0 -13
8 -13 18 0 11 6 16 18 14 9 -2 21 -4 25 -4z m77 -22 c0 -4 -11 -6 -25 -6 -28
0 -34 24 -7 29 16 4 31 -8 32 -23z m38 12 c3 -8 -1 -12 -9 -9 -7 2 -15 10 -17
17 -3 8 1 12 9 9 7 -2 15 -10 17 -17z"/>
<path d="M146 673 c-10 -24 20 -51 36 -34 11 10 10 11 -3 6 -22 -8 -34 12 -19
30 7 9 8 15 2 15 -5 0 -13 -8 -16 -17z"/>
<path d="M280 629 c-7 -11 -9 -23 -6 -27 3 -3 6 0 6 6 0 7 8 12 18 13 10 0 12
3 4 6 -6 2 -10 9 -6 14 3 5 3 9 0 9 -3 0 -10 -9 -16 -21z"/>
<path d="M226 618 c3 -4 12 -8 20 -8 8 0 14 4 14 8 0 4 -9 8 -19 8 -11 0 -17
-4 -15 -8z"/>
<path d="M335 580 c-8 -13 14 -42 26 -34 5 3 9 -2 9 -10 0 -8 4 -17 9 -20 5
-3 8 2 7 12 0 9 5 16 12 14 8 -1 11 2 7 7 -3 6 -12 8 -20 4 -17 -6 -20 8 -5
23 7 7 6 11 -4 11 -8 0 -14 -5 -13 -10 1 -5 -4 -12 -12 -15 -10 -3 -12 0 -8
12 7 18 2 22 -8 6z"/>
<path d="M436 411 c-4 -5 3 -7 14 -4 23 6 26 13 6 13 -8 0 -17 -4 -20 -9z"/>
<path d="M445 390 c-19 -8 -19 -9 3 -9 12 -1 22 4 22 9 0 6 -1 10 -2 9 -2 0
-12 -4 -23 -9z"/>
<path d="M463 364 c19 -6 23 -20 7 -27 -6 -3 -5 -4 2 -3 21 4 15 31 -7 33 -16
1 -16 1 -2 -3z"/>
<path d="M473 300 c3 -11 0 -20 -6 -20 -6 0 -8 -3 -5 -6 4 -3 19 2 35 11 24
14 25 15 4 9 -19 -5 -23 -3 -18 10 4 9 1 16 -4 16 -6 0 -9 -9 -6 -20z"/>
<path d="M523 250 c-11 -16 -10 -18 2 -14 8 4 15 12 15 20 0 19 -3 18 -17 -6z"/>
<path d="M539 218 c15 -21 31 -23 31 -6 0 6 -3 8 -7 5 -3 -4 -13 -1 -22 6 -14
11 -14 10 -2 -5z"/>
<path d="M592 156 c1 -14 6 -22 10 -20 4 3 4 12 1 21 -5 12 -3 14 7 8 9 -5 11
-4 6 3 -12 20 -26 13 -24 -12z"/>
<path d="M650 127 c0 -8 -8 -18 -17 -20 -17 -4 -17 -5 0 -6 18 -1 35 25 23 36
-3 4 -6 -1 -6 -10z"/>
<path d="M666 103 c-10 -26 11 -40 29 -20 8 9 10 12 3 7 -19 -16 -30 -12 -23
10 8 24 0 27 -9 3z"/>
<path d="M720 83 c0 -5 4 -14 9 -21 7 -11 9 -11 14 1 3 8 3 18 0 21 -9 8 -23
7 -23 -1z"/>
<path d="M1122 74 c-7 -8 -11 -22 -9 -32 4 -16 5 -16 6 1 0 9 6 17 11 17 6 0
10 -8 11 -17 0 -10 3 -13 5 -7 3 6 1 20 -3 31 -7 18 -10 19 -21 7z"/>
<path d="M1163 75 c-3 -9 -3 -19 1 -22 3 -4 6 2 6 11 0 12 5 16 16 12 8 -3 12
-2 9 4 -9 15 -25 12 -32 -5z"/>
<path d="M842 30 c0 -14 2 -19 5 -12 2 6 2 18 0 25 -3 6 -5 1 -5 -13z"/>
<path d="M876 42 c7 -4 14 -16 17 -27 4 -15 5 -14 6 8 1 20 -4 27 -16 27 -12
0 -14 -3 -7 -8z"/>
<path d="M1034 39 c-3 -6 -2 -15 3 -20 5 -5 9 -1 9 11 0 23 -2 24 -12 9z"/>
<path d="M982 20 c0 -14 2 -19 5 -12 2 6 2 18 0 25 -3 6 -5 1 -5 -13z"/>
<path d="M1012 20 c0 -14 2 -19 5 -12 2 6 2 18 0 25 -3 6 -5 1 -5 -13z"/>
</g>
</svg>
